<svg
   version="1.1"
   width="55.824806"
   height="75"
   style="clip-rule:evenodd;fill-rule:evenodd;image-rendering:optimizeQuality;shape-rendering:geometricPrecision;text-rendering:geometricPrecision"
   id="svg150">
  <defs
     id="defs154" />
  <g
     id="g8"
     style="fill:#b3b3b3"
     transform="matrix(0.20000093,0,0,0.20000093,-21.899629,-12.700059)">
    <path
       style="opacity:1;fill:#b3b3b3"
       fill="#f57c02"
       d="m 366.5,63.5 c 2.39,1.5198 5.057,2.5198 8,3 0.473,1.4063 1.473,2.073 3,2 1.618,2.285 3.618,4.285 6,6 -0.073,1.5269 0.594,2.5269 2,3 -0.073,1.5269 0.594,2.5269 2,3 0.551,3.3067 0.884,6.6401 1,10 0.325,108.022 -0.008,216.022 -1,324 0,1.667 0,3.333 0,5 0.172,0.992 -0.162,1.658 -1,2 -1.826,1.647 -3.16,3.647 -4,6 -1.411,2.414 -3.411,4.081 -6,5 -2.319,0.492 -4.319,1.492 -6,3 -2.053,-0.098 -3.72,0.569 -5,2 -76.696,1.331 -153.363,1.331 -230,0 -2.645,-1.81 -5.645,-2.81 -9,-3 -0.473,-1.406 -1.473,-2.073 -3,-2 -0.473,-1.406 -1.473,-2.073 -3,-2 -3.8,-2.463 -6.467,-5.796 -8,-10 -0.178,-2.716 -0.678,-5.383 -1.5,-8 -0.5,-86.333 -0.667,-172.666 -0.5,-259 20.174,0.33 40.174,-0.003 60,-1 9.256,-1.463 16.923,-5.796 23,-13 1.745,-1.533 2.745,-3.533 3,-6 0.515,-2.394 1.181,-4.728 2,-7 0.997,-20.827 1.331,-41.8267 1,-63 55.667,0 111.333,0 167,0 z"
       id="path6" />
  </g>
  <g
     id="g24"
     style="fill:#ececec"
     transform="matrix(0.20050549,0,0,0.20050549,-21.955351,-12.732099)">
    <path
       style="opacity:1;fill:#ececec"
       fill="#fac790"
       d="m 198.5,64.5 c 0,20.6667 0,41.333 0,62 -0.819,2.272 -1.485,4.606 -2,7 -1.745,1.533 -2.745,3.533 -3,6 -6.077,7.204 -13.744,11.537 -23,13 -20.333,0 -40.667,0 -61,0 0,-0.333 0,-0.667 0,-1 1.175,0.219 2.175,-0.114 3,-1 28.354,-29.021 57.021,-57.6877 86,-86 z"
       id="path22" />
  </g>
  <g
     id="g36"
     style="fill:#ececec"
     transform="matrix(0.20050549,0,0,0.20050549,-21.955351,-12.732099)">
    <path
       style="opacity:0.533;fill:#ececec"
       fill="#f8e2ca"
       d="m 198.5,63.5 c 0,0.3333 0,0.6667 0,1 -28.979,28.3123 -57.646,56.979 -86,86 -0.825,0.886 -1.825,1.219 -3,1 29.05,-30.05 58.716,-59.3835 89,-88 z"
       id="path34" />
  </g>
  <g
     id="g60"
     style="fill:#808080"
     transform="matrix(0.20050549,0,0,0.20050549,-21.955351,-14.336143)">
    <path
       style="opacity:1;fill:#808080"
       fill="#8d4c0a"
       d="m 355.5,235.5 c 2.895,1.299 5.562,2.965 8,5 1.011,1.872 1.845,3.872 2.5,6 0.5,32.332 0.667,64.665 0.5,97 -2.182,5.681 -6.182,9.514 -12,11.5 -71.391,0.99 -142.724,0.657 -214,-1 -3.516,-2.871 -6.183,-6.371 -8,-10.5 -1.167,-32.328 -1.333,-64.662 -0.5,-97 1.99,-4.489 5.157,-7.822 9.5,-10 71.311,-0.987 142.644,-1.321 214,-1 z"
       id="path58" />
  </g>
 
</svg>
