<svg width="394" height="800" viewBox="0 0 394 800" fill="none" xmlns="http://www.w3.org/2000/svg">
<rect x="0.788809" y="-0.788809" width="108.856" height="108.856" transform="matrix(1 0 0 -1 0.967773 48.8555)" fill="#29292B" stroke="black" stroke-width="1.57762"/>
<rect opacity="0.1" x="0.788809" y="-0.788809" width="108.856" height="108.856" transform="matrix(1 0 0 -1 111.401 48.8555)" fill="#29292B" stroke="black" stroke-width="1.57762"/>
<rect opacity="0.2" x="0.788809" y="-0.788809" width="108.856" height="108.856" transform="matrix(1 0 0 -1 221.834 48.8555)" fill="#29292B" stroke="black" stroke-width="1.57762"/>
<rect opacity="0.3" x="0.788809" y="-0.788809" width="108.856" height="108.856" transform="matrix(1 0 0 -1 332.267 48.8555)" fill="#29292B" stroke="black" stroke-width="1.57762"/>
<rect opacity="0.1" x="0.788809" y="-0.788809" width="108.856" height="108.856" transform="matrix(1 0 0 -1 0.967773 159.289)" fill="#29292B" stroke="black" stroke-width="1.57762"/>
<rect x="0.788809" y="-0.788809" width="108.856" height="108.856" transform="matrix(1 0 0 -1 111.401 159.289)" fill="#29292B" stroke="black" stroke-width="1.57762"/>
<rect opacity="0.2" x="0.788809" y="-0.788809" width="108.856" height="108.856" transform="matrix(1 0 0 -1 221.834 159.289)" fill="#29292B" stroke="black" stroke-width="1.57762"/>
<rect opacity="0.3" x="0.788809" y="-0.788809" width="108.856" height="108.856" transform="matrix(1 0 0 -1 332.267 159.289)" fill="#29292B" stroke="black" stroke-width="1.57762"/>
<rect opacity="0.1" x="0.788809" y="-0.788809" width="108.856" height="108.856" transform="matrix(1 0 0 -1 0.967773 269.722)" fill="#29292B" stroke="black" stroke-width="1.57762"/>
<rect opacity="0.2" x="0.788809" y="-0.788809" width="108.856" height="108.856" transform="matrix(1 0 0 -1 111.401 269.722)" fill="#29292B" stroke="black" stroke-width="1.57762"/>
<rect x="0.788809" y="-0.788809" width="108.856" height="108.856" transform="matrix(1 0 0 -1 221.834 269.722)" fill="#29292B" stroke="black" stroke-width="1.57762"/>
<rect opacity="0.3" x="0.788809" y="-0.788809" width="108.856" height="108.856" transform="matrix(1 0 0 -1 332.267 269.722)" fill="#29292B" stroke="black" stroke-width="1.57762"/>
<rect opacity="0.1" x="0.788809" y="-0.788809" width="108.856" height="108.856" transform="matrix(1 0 0 -1 0.967773 380.155)" fill="#29292B" stroke="black" stroke-width="1.57762"/>
<rect opacity="0.2" x="0.788809" y="-0.788809" width="108.856" height="108.856" transform="matrix(1 0 0 -1 111.401 380.155)" fill="#29292B" stroke="black" stroke-width="1.57762"/>
<rect opacity="0.3" x="0.788809" y="-0.788809" width="108.856" height="108.856" transform="matrix(1 0 0 -1 221.834 380.155)" fill="#29292B" stroke="black" stroke-width="1.57762"/>
<rect x="0.788809" y="-0.788809" width="108.856" height="108.856" transform="matrix(1 0 0 -1 332.267 380.155)" fill="#29292B" stroke="black" stroke-width="1.57762"/>
<rect opacity="0.1" x="1.75658" y="382.522" width="108.856" height="108.856" fill="#29292B" stroke="black" stroke-width="1.57762"/>
<rect opacity="0.2" x="112.19" y="382.522" width="108.856" height="108.856" fill="#29292B" stroke="black" stroke-width="1.57762"/>
<rect opacity="0.3" x="222.623" y="382.522" width="108.856" height="108.856" fill="#29292B" stroke="black" stroke-width="1.57762"/>
<rect x="333.056" y="382.522" width="108.856" height="108.856" fill="#29292B" stroke="black" stroke-width="1.57762"/>
<rect opacity="0.1" x="1.75658" y="492.955" width="108.856" height="108.856" fill="#29292B" stroke="black" stroke-width="1.57762"/>
<rect opacity="0.2" x="112.19" y="492.955" width="108.856" height="108.856" fill="#29292B" stroke="black" stroke-width="1.57762"/>
<rect x="222.623" y="492.955" width="108.856" height="108.856" fill="#29292B" stroke="black" stroke-width="1.57762"/>
<rect opacity="0.3" x="333.056" y="492.955" width="108.856" height="108.856" fill="#29292B" stroke="black" stroke-width="1.57762"/>
<rect opacity="0.1" x="1.75658" y="603.388" width="108.856" height="108.856" fill="#29292B" stroke="black" stroke-width="1.57762"/>
<rect x="112.19" y="603.388" width="108.856" height="108.856" fill="#29292B" stroke="black" stroke-width="1.57762"/>
<rect opacity="0.2" x="222.623" y="603.388" width="108.856" height="108.856" fill="#29292B" stroke="black" stroke-width="1.57762"/>
<rect opacity="0.3" x="333.056" y="603.388" width="108.856" height="108.856" fill="#29292B" stroke="black" stroke-width="1.57762"/>
<rect x="1.75658" y="713.821" width="108.856" height="108.856" fill="#29292B" stroke="black" stroke-width="1.57762"/>
<rect opacity="0.1" x="112.19" y="713.821" width="108.856" height="108.856" fill="#29292B" stroke="black" stroke-width="1.57762"/>
<rect opacity="0.2" x="222.623" y="713.821" width="108.856" height="108.856" fill="#29292B" stroke="black" stroke-width="1.57762"/>
<rect opacity="0.3" x="333.056" y="713.821" width="108.856" height="108.856" fill="#29292B" stroke="black" stroke-width="1.57762"/>
</svg>
