<?xml version="1.0" encoding="UTF-8" standalone="no"?>
<!-- Created with Inkscape (http://www.inkscape.org/) -->

<svg
   version="1.1"
   id="svg1694"
   width="1083.8143"
   height="938.81598"
   viewBox="0 0 1083.8144 938.81598"
   xmlns="http://www.w3.org/2000/svg"
   xmlns:svg="http://www.w3.org/2000/svg">
  <defs
     id="defs1698" />
  <g
     id="g1700"
     transform="translate(-123.38401,-106.1625)">
    <path
       id="path1797"
       style="fill:#b3b3b3;stroke-width:1.33333"
       d="m 676.36523,106.2793 c -27.19456,-0.56058 -54.6123,0.89415 -82.05664,4.41797 -95.8422,12.306 -188.39128,51.38505 -265.12109,111.94921 -104.20911,82.25404 -175.37753,201.4961 -197.81641,331.44141 -15.28134,88.49541 -8.50289,181.93059 19.20118,264.66797 26.97851,80.57051 69.52918,149.69503 130.10546,211.36524 15.25262,15.528 13.4515,14.8442 23.33789,8.875 4.67748,-2.8241 18.70521,-10.4331 31.17188,-16.9082 12.46666,-6.4751 24.76536,-12.9665 27.33203,-14.4258 4.58457,-2.6066 14.17107,-7.69843 46,-24.43163 8.8,-4.6264 26.46635,-13.65295 39.25781,-20.06055 25.35023,-12.69873 33.42942,-19.0566 42.88868,-33.74804 9.3802,-14.56876 18.55487,-40.43729 23.17187,-65.33399 5.5219,-29.7761 7.88494,-75.39071 4.18164,-80.70312 -4.8551,-6.96462 -14.95605,-26.64637 -19.74805,-38.47852 -8.1964,-20.2383 -12.83617,-41.57805 -14.81445,-68.13867 -0.36717,-4.92971 -0.73463,-5.37706 -5,-6.07617 -2.53212,-0.41501 -6.29877,-1.86786 -8.37109,-3.23047 -4.3021,-2.82876 -10.45486,-11.26581 -9.42774,-12.92774 0.37752,-0.61083 0.17031,-1.11132 -0.45898,-1.11132 -4.58041,0 -19.13203,-67.96009 -19.26367,-89.9668 -0.11294,-18.88282 4.4877,-29.40029 13.49023,-30.83985 8.91243,-1.42516 8.58633,0.0175 6.96484,-30.70898 -0.80736,-15.29928 -1.86718,-39.5997 -2.35351,-54 l -0.88281,-26.18164 -5.08789,-0.68359 c -2.79824,-0.37532 -6.82975,-1.9233 -8.95899,-3.43946 -4.66093,-3.31886 -5.55867,-8.6487 -5.57617,-33.13281 -0.0233,-32.71144 9.5516,-63.73727 28.83594,-93.44922 4.49045,-6.91858 7.75443,-10.71569 8.70703,-10.12695 0.95812,0.59215 1.15911,0.34897 0.53906,-0.6543 -1.8458,-2.98658 21.62465,-27.63398 37.90625,-39.80664 24.5847,-18.38029 58.96387,-32.92327 92.66797,-39.20117 21.9392,-4.08657 56.98593,-4.11093 79.33203,-0.0547 14.2298,2.58296 42.51957,10.44815 48.66797,13.53125 1.4666,0.73546 6.56533,3.01618 11.33203,5.06836 14.594,6.28309 24.65183,11.90265 34.11133,19.0625 8.4494,6.39528 9.62793,6.8795 17.80273,7.30273 16.3182,0.84487 31.98356,7.53305 42.50196,18.14649 15.1086,15.24507 24.6526,38.04116 30.5039,72.85937 3.375,20.08249 2.98359,73.93493 -0.88281,121.60938 -1.5761,19.43334 -3.21794,43.3765 -3.64844,53.20703 -0.7823,17.8608 -0.78062,17.87198 2.11328,17.11523 6.9157,-1.8085 15.88792,3.45044 21.44922,12.57227 2.3419,3.84128 2.71094,6.70973 2.71094,21.3418 0.006,20.4799 -1.54696,32.72167 -6.81836,53.76367 -9.2768,37.03079 -16.66666,50.57203 -29.50976,54.07226 -2.75,0.7495 -5,1.6303 -5,1.95704 0,4.72606 -8.4494,37.86083 -13.9043,54.52539 -10.0758,30.78154 -15.96839,42.72597 -26.08399,52.87304 l -8.24414,8.26953 0.85938,14.1504 c 3.3479,55.18669 10.42968,91.4019 22.77148,116.44336 9.9158,20.11908 15.99897,26.06069 42.60157,41.61132 41.1517,24.05534 51.06558,29.22295 107.33398,55.96881 16.5,7.8428 35.9986,17.4314 43.332,21.3066 l 13.334,7.0449 4.666,-3.9687 c 5.8724,-4.9936 18.3342,-17.9273 32.92,-34.17 30.455,-33.91487 56.7597,-72.77381 78.1718,-115.47848 76.7828,-153.13701 76.7828,-333.40986 0,-486.54688 C 1114.1779,334.14552 1063.237,271.62315 1001.1875,222.64648 907.85018,148.97371 794.20837,108.70846 676.36523,106.2793 Z" />
  </g>
</svg>
